<svg width="9" height="13" viewBox="0 0 9 13" fill="none" xmlns="http://www.w3.org/2000/svg">
<path d="M4.49219 12.2344C3.61719 12.2344 2.85938 11.9974 2.21875 11.5234C1.57812 11.0443 1.08073 10.3516 0.726562 9.44531C0.377604 8.53385 0.203125 7.42969 0.203125 6.13281C0.203125 4.84115 0.377604 3.74219 0.726562 2.83594C1.08073 1.92969 1.57812 1.23958 2.21875 0.765625C2.85938 0.286458 3.61719 0.046875 4.49219 0.046875C5.3724 0.046875 6.13281 0.286458 6.77344 0.765625C7.41406 1.23958 7.90885 1.92969 8.25781 2.83594C8.61198 3.74219 8.78906 4.84115 8.78906 6.13281C8.78906 7.42969 8.61458 8.53385 8.26562 9.44531C7.91667 10.3516 7.41927 11.0443 6.77344 11.5234C6.13281 11.9974 5.3724 12.2344 4.49219 12.2344ZM4.49219 10.1328C5.07552 10.1328 5.52604 9.78385 5.84375 9.08594C6.16667 8.38802 6.32812 7.40625 6.32812 6.14062C6.32812 4.86979 6.16667 3.88802 5.84375 3.19531C5.52604 2.4974 5.07552 2.14844 4.49219 2.14844C3.91927 2.14844 3.47135 2.4974 3.14844 3.19531C2.82552 3.88802 2.66406 4.86979 2.66406 6.14062C2.66406 7.40625 2.82552 8.38802 3.14844 9.08594C3.47135 9.78385 3.91927 10.1328 4.49219 10.1328Z" fill="#1D2026"/>
</svg>
